<svg aria-hidden="true" style="position: absolute; width: 0; height: 0; overflow: hidden;" version="1.1" xmlns="http://www.w3.org/2000/svg" xmlns:xlink="http://www.w3.org/1999/xlink">
<defs>
<symbol id="icon-spaaan" viewBox="0 0 270 32">
<path fill="#dde0e4" style="fill: var(--color1, #dde0e4)" d="M150 16.506c0 8.284-6.716 15-15 15s-15-6.716-15-15c0-8.284 6.716-15 15-15s15 6.716 15 15z"></path>
<path fill="#dde0e4" style="fill: var(--color1, #dde0e4)" d="M210 16.506c0 8.284-6.716 15-15 15s-15-6.716-15-15c0-8.284 6.716-15 15-15s15 6.716 15 15z"></path>
<path fill="#dde0e4" style="fill: var(--color1, #dde0e4)" d="M270 16.506c0 8.284-6.716 15-15 15s-15-6.716-15-15c0-8.284 6.716-15 15-15s15 6.716 15 15z"></path>
<path fill="#f53838" style="fill: var(--color2, #f53838)" d="M15.114 31.505c-0.038 0-0.076 0-0.114 0s-0.076 0-0.114-0h-0.992v-0.040c-7.768-0.566-13.894-7.048-13.894-14.96s6.126-14.394 13.894-14.96v-0.040l60.274 0.023c0.275-0.015 0.553-0.023 0.832-0.023 8.284 0 15 6.716 15 15s-6.716 15-15 15c-0.279 0-0.556-0.008-0.832-0.023v0.022h-59.054z"></path>
</symbol>
</defs>
</svg>
